<svg xmlns="http://www.w3.org/2000/svg" version="1.1" xmlns:xlink="http://www.w3.org/1999/xlink" xmlns:svgjs="http://svgjs.dev/svgjs" width="1000" height="623" viewBox="0 0 1000 623"><g transform="matrix(1,0,0,1,-0.6060606060606233,0.2522267206477409)"><svg viewBox="0 0 396 247" data-background-color="#ffffff" preserveAspectRatio="xMidYMid meet" height="623" width="1000" xmlns="http://www.w3.org/2000/svg" xmlns:xlink="http://www.w3.org/1999/xlink"><g id="tight-bounds" transform="matrix(1,0,0,1,0.2400000000000091,-0.09999999999999432)"><svg viewBox="0 0 395.52 247.2" height="247.2" width="395.52"><g><svg></svg></g><g><svg viewBox="0 0 395.52 247.2" height="247.2" width="395.52"><g transform="matrix(1,0,0,1,76.57769874476989,47.215199999999996)"><svg viewBox="0 0 242.3646025104602 152.7696" height="152.7696" width="242.3646025104602"><g><svg viewBox="0 0 242.3646025104602 152.7696" height="152.7696" width="242.3646025104602"><g><svg viewBox="0 0 242.36460251046026 152.76960000000003" height="152.7696" width="242.3646025104602"><g><svg viewBox="0 0 242.36460251046026 152.76960000000003" height="152.76960000000003" width="242.36460251046026"><g id="textblocktransform"><svg viewBox="0 0 242.36460251046026 152.76960000000003" height="152.76960000000003" width="242.36460251046026" id="textblock"><g><svg viewBox="0 0 242.36460251046026 152.76960000000003" height="152.76960000000003" width="242.36460251046026"><g transform="matrix(1,0,0,1,0,0)"><svg width="242.36460251046026" viewBox="2.8600001335144043 -35.0099983215332 55.540000915527344 35.0099983215332" height="152.76960000000003" data-palette-color="#e83d95"><path d="M30.86-35.01L30.86-13.99Q30.86-11.08 29.76-8.53 28.66-5.98 26.76-4.09 24.85-2.2 22.3-1.1 19.75 0 16.85 0L16.85 0Q13.94 0 11.39-1.1 8.84-2.2 6.95-4.09 5.05-5.98 3.96-8.53 2.86-11.08 2.86-13.99L2.86-13.99 2.86-35.01 9.84-35.01 9.84-13.99Q9.84-12.55 10.39-11.28 10.94-10.01 11.89-9.06 12.84-8.11 14.12-7.56 15.41-7.01 16.85-7.01L16.85-7.01Q18.29-7.01 19.57-7.56 20.85-8.11 21.8-9.06 22.75-10.01 23.3-11.28 23.85-12.55 23.85-13.99L23.85-13.99 23.85-35.01 30.86-35.01ZM50.1 0L50.1 0 34.86 0 34.86-6.64 50.1-6.64Q50.78-6.64 51.27-7.13 51.76-7.62 51.76-8.3L51.76-8.3Q51.76-9.01 51.27-9.23 50.78-9.45 50.1-9.45L50.1-9.45 43.16-9.45Q41.43-9.45 39.91-10.11 38.4-10.77 37.28-11.9 36.15-13.04 35.51-14.55 34.86-16.06 34.86-17.8L34.86-17.8Q34.86-19.53 35.51-21.04 36.15-22.56 37.28-23.68 38.4-24.8 39.91-25.45 41.43-26.1 43.16-26.1L43.16-26.1 56.66-26.1 56.66-19.46 43.16-19.46Q42.48-19.46 41.99-18.97 41.5-18.48 41.5-17.8L41.5-17.8Q41.5-17.09 41.99-16.59 42.48-16.09 43.16-16.09L43.16-16.09 50.1-16.09Q51.8-16.09 53.32-15.52 54.83-14.94 55.95-13.92 57.08-12.89 57.74-11.45 58.4-10.01 58.4-8.3L58.4-8.3Q58.4-6.57 57.74-5.07 57.08-3.56 55.95-2.43 54.83-1.29 53.32-0.65 51.8 0 50.1 0Z" opacity="1" transform="matrix(1,0,0,1,0,0)" fill="#e83d95" class="undefined-text-0" data-fill-palette-color="primary" id="text-0"></path></svg></g></svg></g></svg></g></svg></g></svg></g></svg></g></svg></g><g><path d="M0 123.6c0-68.262 55.338-123.6 123.6-123.6 30.402 0 58.24 10.976 79.768 29.183l-11.147 0c-19.26-14.022-42.974-22.294-68.621-22.295-64.458 0-116.712 52.254-116.712 116.712 0 64.458 52.254 116.712 116.712 116.712 25.647 0 49.361-8.272 68.621-22.295h11.147c-21.528 18.206-49.366 29.183-79.768 29.183-68.262 0-123.6-55.338-123.6-123.6z" fill="#e83d95" stroke="transparent" data-fill-palette-color="tertiary"></path></g></svg></g><defs></defs></svg><rect width="395.52" height="247.2" fill="none" stroke="none" visibility="hidden"></rect></g></svg></g></svg>