<?xml version="1.0" standalone="no"?>
<!DOCTYPE svg PUBLIC "-//W3C//DTD SVG 20010904//EN"
 "http://www.w3.org/TR/2001/REC-SVG-20010904/DTD/svg10.dtd">
<svg version="1.0" xmlns="http://www.w3.org/2000/svg"
 width="1000.000000pt" height="1000.000000pt" viewBox="0 0 1000.000000 1000.000000"
 preserveAspectRatio="xMidYMid meet">
<metadata>
Created by potrace 1.14, written by Peter Selinger 2001-2017
</metadata>
<g transform="translate(0.000000,1000.000000) scale(0.100000,-0.100000)"
fill="#000000" stroke="none">
<path d="M2909 8106 c-2 -2 -40 -7 -83 -11 -43 -4 -88 -9 -100 -11 -12 -2 -44
-7 -72 -10 -54 -5 -64 -7 -131 -22 -23 -5 -44 -7 -48 -4 -3 3 -5 0 -5 -7 0 -7
-4 -10 -9 -7 -11 7 -242 -54 -356 -94 -172 -61 -464 -192 -473 -212 -2 -5 -7
-8 -12 -8 -13 0 -155 -86 -243 -146 -43 -30 -80 -54 -83 -54 -2 0 -13 -8 -23
-17 -11 -10 -26 -22 -33 -28 -174 -131 -361 -310 -499 -475 -34 -41 -66 -76
-70 -78 -5 -2 -9 -9 -9 -16 0 -7 -9 -21 -19 -30 -10 -9 -49 -63 -86 -119 -65
-97 -79 -118 -136 -212 -30 -48 -169 -327 -169 -339 0 -4 -7 -22 -15 -39 -14
-31 -56 -142 -62 -162 -1 -5 -19 -64 -38 -130 -20 -66 -38 -128 -40 -138 -2
-10 -6 -26 -9 -35 -3 -9 -8 -33 -11 -52 -3 -19 -8 -42 -10 -50 -5 -17 -13 -62
-19 -111 -3 -19 -10 -66 -15 -105 -29 -197 -32 -581 -6 -734 2 -14 6 -47 9
-75 44 -381 230 -907 427 -1203 16 -24 29 -45 29 -48 0 -5 104 -156 122 -179
5 -5 29 -37 54 -70 119 -157 330 -373 499 -508 33 -26 67 -54 75 -60 8 -7 31
-23 50 -37 19 -13 37 -27 40 -30 3 -3 17 -11 32 -19 16 -8 28 -18 28 -23 0 -4
5 -8 11 -8 5 0 37 -18 69 -40 32 -22 62 -40 65 -40 4 0 20 -9 35 -20 47 -33
299 -155 410 -198 145 -55 143 -55 165 -59 11 -1 29 -7 40 -13 32 -16 285 -80
317 -81 2 0 21 -4 43 -10 22 -5 60 -11 85 -14 25 -3 52 -8 61 -11 87 -25 737
-26 864 0 11 2 40 7 65 11 98 15 131 21 158 29 9 3 28 7 42 10 229 45 565 173
805 306 145 80 369 232 480 325 l30 25 -144 0 c-108 0 -148 -3 -160 -14 -22
-19 -120 -86 -125 -86 -3 0 -25 -13 -49 -30 -25 -16 -50 -30 -56 -30 -6 0 -11
-3 -11 -7 0 -5 -10 -13 -23 -19 -12 -6 -58 -29 -102 -51 -44 -23 -102 -51
-130 -62 -27 -12 -57 -26 -67 -31 -48 -27 -348 -127 -432 -145 -50 -10 -69
-15 -86 -20 -10 -3 -33 -8 -51 -10 -19 -3 -45 -7 -59 -10 -14 -3 -43 -8 -65
-11 -22 -3 -51 -7 -65 -10 -165 -27 -659 -26 -795 2 -11 3 -38 7 -60 10 -22 3
-46 7 -54 10 -8 3 -30 7 -50 10 -31 5 -163 35 -211 49 -47 13 -187 56 -200 62
-8 3 -19 7 -25 9 -57 14 -285 119 -415 190 -126 69 -352 219 -411 274 -8 8
-41 35 -72 60 -137 111 -384 381 -498 545 -18 28 -37 52 -40 55 -34 28 -233
405 -283 535 -15 39 -31 79 -36 90 -25 57 -94 292 -106 365 -3 14 -7 32 -10
40 -3 8 -8 33 -10 55 -3 22 -8 47 -11 55 -3 8 -7 35 -9 60 -3 25 -7 51 -9 58
-12 32 -20 192 -20 377 0 278 10 380 69 670 5 23 30 116 52 190 8 28 16 57 18
66 20 79 203 491 226 509 4 3 9 12 13 21 22 62 222 348 334 479 45 52 272 280
279 280 3 0 15 10 28 23 59 57 278 220 346 258 37 20 58 33 100 60 28 19 245
128 303 153 20 9 53 23 72 31 43 19 303 106 330 110 11 2 45 10 75 19 30 8 69
17 85 20 17 2 55 9 85 15 52 10 93 16 172 26 178 23 582 24 708 1 14 -2 72
-12 130 -21 226 -36 509 -120 705 -211 33 -15 63 -26 68 -26 4 1 7 -3 7 -10 0
-6 2 -9 6 -6 3 3 44 -16 92 -42 133 -72 163 -90 210 -121 24 -16 47 -29 52
-29 4 0 10 -3 12 -7 2 -5 23 -21 47 -38 44 -30 46 -30 182 -31 107 0 136 2
129 12 -6 6 -45 38 -88 70 -42 33 -78 62 -80 67 -2 4 -9 7 -17 7 -7 0 -18 7
-25 15 -36 43 -550 331 -550 308 0 -3 -6 -1 -12 4 -7 5 -51 24 -98 42 -47 18
-94 37 -105 41 -11 4 -54 18 -95 30 -41 12 -86 25 -100 30 -14 5 -36 11 -50
14 -14 2 -54 11 -90 19 -36 9 -78 18 -95 22 -16 3 -41 7 -55 10 -23 5 -67 11
-150 21 -19 2 -53 7 -75 10 -45 6 -521 15 -526 10z"/>
<path d="M2217 6924 c-3 -3 -68 -7 -143 -8 l-137 -1 0 -1180 c0 -1092 3 -1308
19 -1375 3 -14 7 -38 10 -55 30 -175 127 -403 248 -580 61 -90 236 -275 311
-331 22 -16 42 -31 45 -35 27 -30 323 -189 353 -189 7 0 17 -4 23 -9 5 -6 20
-12 34 -15 14 -2 44 -11 67 -19 23 -9 54 -18 70 -20 15 -3 39 -8 53 -11 14 -4
41 -9 60 -11 19 -3 49 -8 65 -10 44 -7 339 -8 361 -1 11 3 35 8 54 10 91 12
218 44 284 71 18 8 36 11 40 8 3 -4 6 -1 6 5 0 7 6 12 14 12 19 0 243 115 262
135 9 8 19 15 24 15 5 0 15 6 22 13 7 6 38 31 69 54 84 62 196 176 272 275 67
88 152 227 173 283 7 17 28 70 48 120 20 49 39 103 42 120 3 16 11 55 19 86 8
31 18 85 22 120 5 35 8 615 8 1289 l0 1225 -135 3 c-164 3 -221 2 -231 -4 -4
-2 -10 0 -14 6 -4 6 -11 7 -17 4 -5 -4 -60 -6 -122 -5 -184 2 -239 1 -244 -3
-2 -3 -5 -546 -7 -1208 -1 -662 -5 -1219 -9 -1238 -62 -302 -283 -537 -574
-610 -101 -26 -256 -27 -357 -3 -16 4 -32 7 -35 8 -46 10 -197 82 -224 107
-11 10 -24 18 -28 18 -15 0 -97 81 -148 145 -77 97 -116 184 -157 350 -3 11
-6 562 -8 1225 -1 663 -3 1209 -4 1213 0 5 -5 5 -11 2 -5 -3 -85 -6 -177 -5
-211 1 -256 0 -262 -5 -2 -3 -9 0 -16 5 -7 5 -15 7 -18 4z"/>
<path d="M6268 5935 c-2 -1 -21 -5 -43 -9 -138 -19 -322 -102 -431 -194 -290
-244 -396 -599 -294 -982 7 -25 15 -49 20 -55 4 -5 11 -21 15 -35 20 -67 131
-229 201 -295 73 -68 140 -117 199 -145 17 -8 38 -21 49 -30 10 -8 19 -13 20
-11 0 2 18 -4 40 -13 21 -9 48 -18 60 -21 11 -2 39 -9 61 -15 80 -20 137 -22
580 -25 248 -2 464 -6 480 -9 70 -16 98 -56 91 -130 -4 -50 -25 -93 -58 -122
-55 -49 -36 -48 -945 -48 l-853 0 -1 -90 c0 -50 0 -121 -1 -158 0 -37 3 -71 6
-77 4 -5 3 -12 -1 -14 -5 -3 -7 -92 -5 -199 l3 -193 887 1 c932 1 957 2 1082
49 25 9 55 19 68 22 12 3 22 9 22 14 0 5 9 9 20 9 11 0 20 3 20 8 0 4 15 14
32 21 71 32 221 165 275 244 15 23 31 44 36 45 4 2 7 8 7 13 0 5 11 26 23 47
35 55 78 167 97 255 21 90 21 289 0 377 -46 201 -179 391 -353 507 -71 47
-209 113 -238 113 -9 0 -19 3 -23 8 -4 4 -11 7 -14 7 -15 2 -108 19 -122 23
-8 2 -220 5 -470 7 -250 1 -468 6 -485 10 -118 30 -172 182 -100 282 61 84 -5
78 845 80 415 1 763 2 772 3 16 0 17 25 15 363 l-2 362 -792 2 c-435 1 -793 0
-795 -2z"/>
</g>
</svg>
